# xmcd
#
# Track frame offsets:
#	150
#	14599
#	31479
#	51100
#	64991
#	84005
#	100818
#	118437
#	134203
#	147274
#
# Disc length: 2217 seconds
# Revision: 0
# Processed by: cddbd v1.5.2PL0 Copyright (c) Steve Scherf et al.
# Submitted via: dBpowerAMP V12.0
#
DISCID=9308a70a
DTITLE=Brickwall Jackson - Just Life
DYEAR=2012
DGENRE=Country
TTITLE0=Country Girl
TTITLE1=Can't Hang
TTITLE2=Little Baby
TTITLE3=Goin' Down Swingin'
TTITLE4=Missing
TTITLE5=I Wanna Go Home
TTITLE6=First Time Again
TTITLE7=For The Living
TTITLE8=These Hands
TTITLE9=Just Life
EXTD=
EXTT0=
EXTT1=
EXTT2=
EXTT3=
EXTT4=
EXTT5=
EXTT6=
EXTT7=
EXTT8=
EXTT9=
PLAYORDER=
